P1
10 10
1000111101
0101101110
1010110100
0000010111
0101111100
0111100101
1111000110
1101100001
1000110110
0011011000
